# xmcd CD database file
# Copyright (C) 1997 Ti Kan
#
# Track frame offsets:
#  150
#  19085
#  44090
#  65575
#  86500
#  105592
#  119342
#  138927
#  156297
#  170950
#  188390
#  206485
#
# Disc length: 2991 seconds
#
# Revision: 1
# Processed by: cddbd v1.4b41PL1 Copyright (c) Steve Scherf et al.
# Submitted via: CDWizzard Release:4.24
#
DISCID=a50bad0c
DTITLE=Pat Boyack and The Prowlers - On The Prowl
DYEAR=1900
DGENRE=
TTITLE0=Sugar
TTITLE1=Mr. Lucky
TTITLE2=I Know It's Over
TTITLE3=Mean Jealous Woman
TTITLE4=Sneakin' Out
TTITLE5=Preacher Man
TTITLE6=Cleanin' Out My Closet
TTITLE7=What You Do To Me
TTITLE8=Get Out
TTITLE9=Goin' To Chicago
TTITLE10=Mr. Moondog Man
TTITLE11=Shuck'n'Jive
EXTD=
EXTT0=
EXTT1=
EXTT2=
EXTT3=
EXTT4=
EXTT5=
EXTT6=
EXTT7=
EXTT8=
EXTT9=
EXTT10=
EXTT11=
PLAYORDER=
